<svg id="visual" viewBox="0 0 900 600" width="900" height="600" xmlns="http://www.w3.org/2000/svg" xmlns:xlink="http://www.w3.org/1999/xlink" version="1.1"><rect x="0" y="0" width="900" height="600" fill="#beb8b4"></rect><g transform="translate(453.1855271586914 342.2340966613343)"><path d="M108.4 -172.1C133.2 -131.1 141.3 -89.8 168 -45.6C194.6 -1.4 240 45.6 238.7 86.2C237.4 126.8 189.5 160.9 142 170.4C94.4 180 47.2 165 5.4 157.6C-36.4 150.2 -72.9 150.3 -105.2 135.8C-137.6 121.3 -165.8 92.2 -194.5 51.9C-223.2 11.5 -252.3 -40 -243.5 -82.8C-234.7 -125.7 -187.9 -159.9 -141 -193.9C-94 -227.8 -47 -261.4 -2.6 -257.7C41.7 -254.1 83.5 -213.2 108.4 -172.1" fill="#001310"></path></g></svg>